<?xml version="1.0" encoding="UTF-8"?>
<svg width="512" height="512" viewBox="0 0 512 512" fill="none" xmlns="http://www.w3.org/2000/svg">
  <rect width="512" height="512" rx="64" fill="#0C0C0C"/>
  <path d="M256 112C192.86 112 140 158.883 140 217.333C140 255.05 154.857 283.883 187.429 303.25L256 358.667L324.571 303.25C357.143 283.883 372 255.05 372 217.333C372 158.883 319.143 112 256 112Z" fill="#CBA328"/>
  <path d="M256 400L114 286.667C100.571 276.483 92 261.183 92 243.833C92 226.483 100.571 211.183 114 201L256 85.3333L398 201C411.429 211.183 420 226.483 420 243.833C420 261.183 411.429 276.483 398 286.667L256 400Z" stroke="#FFFFFF" stroke-width="16" stroke-linecap="round" stroke-linejoin="round"/>
  <path d="M256 112C192.86 112 140 158.883 140 217.333C140 255.05 154.857 283.883 187.429 303.25L256 358.667L324.571 303.25C357.143 283.883 372 255.05 372 217.333C372 158.883 319.143 112 256 112Z" stroke="#FFFFFF" stroke-width="16" stroke-linecap="round" stroke-linejoin="round"/>
</svg>